<?xml version="1.0" encoding="utf-8" standalone="no"?>
<!DOCTYPE svg PUBLIC "-//W3C//DTD SVG 1.1//EN"
  "http://www.w3.org/Graphics/SVG/1.1/DTD/svg11.dtd">
<svg xmlns:xlink="http://www.w3.org/1999/xlink" width="460.8pt" height="345.6pt" viewBox="0 0 460.8 345.6" xmlns="http://www.w3.org/2000/svg" version="1.1">
 <metadata>
  <rdf:RDF xmlns:dc="http://purl.org/dc/elements/1.1/" xmlns:cc="http://creativecommons.org/ns#" xmlns:rdf="http://www.w3.org/1999/02/22-rdf-syntax-ns#">
   <cc:Work>
    <dc:type rdf:resource="http://purl.org/dc/dcmitype/StillImage"/>
    <dc:date>2024-09-12T16:59:10.207562</dc:date>
    <dc:format>image/svg+xml</dc:format>
    <dc:creator>
     <cc:Agent>
      <dc:title>Matplotlib v3.9.1, https://matplotlib.org/</dc:title>
     </cc:Agent>
    </dc:creator>
   </cc:Work>
  </rdf:RDF>
 </metadata>
 <defs>
  <style type="text/css">*{stroke-linejoin: round; stroke-linecap: butt}</style>
 </defs>
 <g id="figure_1">
  <g id="patch_1">
   <path d="M 0 345.6 
L 460.8 345.6 
L 460.8 0 
L 0 0 
z
" style="fill: #ffffff"/>
  </g>
  <g id="axes_1">
   <g id="patch_2">
    <path d="M 57.6 307.584 
L 414.72 307.584 
L 414.72 41.472 
L 57.6 41.472 
z
" style="fill: #ffffff"/>
   </g>
   <g id="matplotlib.axis_1">
    <g id="xtick_1">
     <g id="line2d_1">
      <path d="M 115.373706 307.584 
L 115.373706 41.472 
" clip-path="url(#pd387320144)" style="fill: none; stroke: #b0b0b0; stroke-width: 0.8; stroke-linecap: square"/>
     </g>
     <g id="line2d_2">
      <defs>
       <path id="m305e5665b9" d="M 0 0 
L 0 3.5 
" style="stroke: #000000; stroke-width: 0.8"/>
      </defs>
      <g>
       <use xlink:href="#m305e5665b9" x="115.373706" y="307.584" style="stroke: #000000; stroke-width: 0.8"/>
      </g>
     </g>
     <g id="text_1">
      <!-- 1.0 -->
      <g transform="translate(107.422144 322.182437) scale(0.1 -0.1)">
       <defs>
        <path id="DejaVuSans-31" d="M 794 531 
L 1825 531 
L 1825 4091 
L 703 3866 
L 703 4441 
L 1819 4666 
L 2450 4666 
L 2450 531 
L 3481 531 
L 3481 0 
L 794 0 
L 794 531 
z
" transform="scale(0.015625)"/>
        <path id="DejaVuSans-2e" d="M 684 794 
L 1344 794 
L 1344 0 
L 684 0 
L 684 794 
z
" transform="scale(0.015625)"/>
        <path id="DejaVuSans-30" d="M 2034 4250 
Q 1547 4250 1301 3770 
Q 1056 3291 1056 2328 
Q 1056 1369 1301 889 
Q 1547 409 2034 409 
Q 2525 409 2770 889 
Q 3016 1369 3016 2328 
Q 3016 3291 2770 3770 
Q 2525 4250 2034 4250 
z
M 2034 4750 
Q 2819 4750 3233 4129 
Q 3647 3509 3647 2328 
Q 3647 1150 3233 529 
Q 2819 -91 2034 -91 
Q 1250 -91 836 529 
Q 422 1150 422 2328 
Q 422 3509 836 4129 
Q 1250 4750 2034 4750 
z
" transform="scale(0.015625)"/>
       </defs>
       <use xlink:href="#DejaVuSans-31"/>
       <use xlink:href="#DejaVuSans-2e" x="63.623047"/>
       <use xlink:href="#DejaVuSans-30" x="95.410156"/>
      </g>
     </g>
    </g>
    <g id="xtick_2">
     <g id="line2d_3">
      <path d="M 186.186619 307.584 
L 186.186619 41.472 
" clip-path="url(#pd387320144)" style="fill: none; stroke: #b0b0b0; stroke-width: 0.8; stroke-linecap: square"/>
     </g>
     <g id="line2d_4">
      <g>
       <use xlink:href="#m305e5665b9" x="186.186619" y="307.584" style="stroke: #000000; stroke-width: 0.8"/>
      </g>
     </g>
     <g id="text_2">
      <!-- 1.2 -->
      <g transform="translate(178.235057 322.182437) scale(0.1 -0.1)">
       <defs>
        <path id="DejaVuSans-32" d="M 1228 531 
L 3431 531 
L 3431 0 
L 469 0 
L 469 531 
Q 828 903 1448 1529 
Q 2069 2156 2228 2338 
Q 2531 2678 2651 2914 
Q 2772 3150 2772 3378 
Q 2772 3750 2511 3984 
Q 2250 4219 1831 4219 
Q 1534 4219 1204 4116 
Q 875 4013 500 3803 
L 500 4441 
Q 881 4594 1212 4672 
Q 1544 4750 1819 4750 
Q 2544 4750 2975 4387 
Q 3406 4025 3406 3419 
Q 3406 3131 3298 2873 
Q 3191 2616 2906 2266 
Q 2828 2175 2409 1742 
Q 1991 1309 1228 531 
z
" transform="scale(0.015625)"/>
       </defs>
       <use xlink:href="#DejaVuSans-31"/>
       <use xlink:href="#DejaVuSans-2e" x="63.623047"/>
       <use xlink:href="#DejaVuSans-32" x="95.410156"/>
      </g>
     </g>
    </g>
    <g id="xtick_3">
     <g id="line2d_5">
      <path d="M 256.999532 307.584 
L 256.999532 41.472 
" clip-path="url(#pd387320144)" style="fill: none; stroke: #b0b0b0; stroke-width: 0.8; stroke-linecap: square"/>
     </g>
     <g id="line2d_6">
      <g>
       <use xlink:href="#m305e5665b9" x="256.999532" y="307.584" style="stroke: #000000; stroke-width: 0.8"/>
      </g>
     </g>
     <g id="text_3">
      <!-- 1.4 -->
      <g transform="translate(249.04797 322.182437) scale(0.1 -0.1)">
       <defs>
        <path id="DejaVuSans-34" d="M 2419 4116 
L 825 1625 
L 2419 1625 
L 2419 4116 
z
M 2253 4666 
L 3047 4666 
L 3047 1625 
L 3713 1625 
L 3713 1100 
L 3047 1100 
L 3047 0 
L 2419 0 
L 2419 1100 
L 313 1100 
L 313 1709 
L 2253 4666 
z
" transform="scale(0.015625)"/>
       </defs>
       <use xlink:href="#DejaVuSans-31"/>
       <use xlink:href="#DejaVuSans-2e" x="63.623047"/>
       <use xlink:href="#DejaVuSans-34" x="95.410156"/>
      </g>
     </g>
    </g>
    <g id="xtick_4">
     <g id="line2d_7">
      <path d="M 327.812445 307.584 
L 327.812445 41.472 
" clip-path="url(#pd387320144)" style="fill: none; stroke: #b0b0b0; stroke-width: 0.8; stroke-linecap: square"/>
     </g>
     <g id="line2d_8">
      <g>
       <use xlink:href="#m305e5665b9" x="327.812445" y="307.584" style="stroke: #000000; stroke-width: 0.8"/>
      </g>
     </g>
     <g id="text_4">
      <!-- 1.6 -->
      <g transform="translate(319.860883 322.182437) scale(0.1 -0.1)">
       <defs>
        <path id="DejaVuSans-36" d="M 2113 2584 
Q 1688 2584 1439 2293 
Q 1191 2003 1191 1497 
Q 1191 994 1439 701 
Q 1688 409 2113 409 
Q 2538 409 2786 701 
Q 3034 994 3034 1497 
Q 3034 2003 2786 2293 
Q 2538 2584 2113 2584 
z
M 3366 4563 
L 3366 3988 
Q 3128 4100 2886 4159 
Q 2644 4219 2406 4219 
Q 1781 4219 1451 3797 
Q 1122 3375 1075 2522 
Q 1259 2794 1537 2939 
Q 1816 3084 2150 3084 
Q 2853 3084 3261 2657 
Q 3669 2231 3669 1497 
Q 3669 778 3244 343 
Q 2819 -91 2113 -91 
Q 1303 -91 875 529 
Q 447 1150 447 2328 
Q 447 3434 972 4092 
Q 1497 4750 2381 4750 
Q 2619 4750 2861 4703 
Q 3103 4656 3366 4563 
z
" transform="scale(0.015625)"/>
       </defs>
       <use xlink:href="#DejaVuSans-31"/>
       <use xlink:href="#DejaVuSans-2e" x="63.623047"/>
       <use xlink:href="#DejaVuSans-36" x="95.410156"/>
      </g>
     </g>
    </g>
    <g id="xtick_5">
     <g id="line2d_9">
      <path d="M 398.625358 307.584 
L 398.625358 41.472 
" clip-path="url(#pd387320144)" style="fill: none; stroke: #b0b0b0; stroke-width: 0.8; stroke-linecap: square"/>
     </g>
     <g id="line2d_10">
      <g>
       <use xlink:href="#m305e5665b9" x="398.625358" y="307.584" style="stroke: #000000; stroke-width: 0.8"/>
      </g>
     </g>
     <g id="text_5">
      <!-- 1.8 -->
      <g transform="translate(390.673795 322.182437) scale(0.1 -0.1)">
       <defs>
        <path id="DejaVuSans-38" d="M 2034 2216 
Q 1584 2216 1326 1975 
Q 1069 1734 1069 1313 
Q 1069 891 1326 650 
Q 1584 409 2034 409 
Q 2484 409 2743 651 
Q 3003 894 3003 1313 
Q 3003 1734 2745 1975 
Q 2488 2216 2034 2216 
z
M 1403 2484 
Q 997 2584 770 2862 
Q 544 3141 544 3541 
Q 544 4100 942 4425 
Q 1341 4750 2034 4750 
Q 2731 4750 3128 4425 
Q 3525 4100 3525 3541 
Q 3525 3141 3298 2862 
Q 3072 2584 2669 2484 
Q 3125 2378 3379 2068 
Q 3634 1759 3634 1313 
Q 3634 634 3220 271 
Q 2806 -91 2034 -91 
Q 1263 -91 848 271 
Q 434 634 434 1313 
Q 434 1759 690 2068 
Q 947 2378 1403 2484 
z
M 1172 3481 
Q 1172 3119 1398 2916 
Q 1625 2713 2034 2713 
Q 2441 2713 2670 2916 
Q 2900 3119 2900 3481 
Q 2900 3844 2670 4047 
Q 2441 4250 2034 4250 
Q 1625 4250 1398 4047 
Q 1172 3844 1172 3481 
z
" transform="scale(0.015625)"/>
       </defs>
       <use xlink:href="#DejaVuSans-31"/>
       <use xlink:href="#DejaVuSans-2e" x="63.623047"/>
       <use xlink:href="#DejaVuSans-38" x="95.410156"/>
      </g>
     </g>
    </g>
    <g id="text_6">
     <!-- Vc voltage -->
     <g transform="translate(209.718594 335.860562) scale(0.1 -0.1)">
      <defs>
       <path id="DejaVuSans-56" d="M 1831 0 
L 50 4666 
L 709 4666 
L 2188 738 
L 3669 4666 
L 4325 4666 
L 2547 0 
L 1831 0 
z
" transform="scale(0.015625)"/>
       <path id="DejaVuSans-63" d="M 3122 3366 
L 3122 2828 
Q 2878 2963 2633 3030 
Q 2388 3097 2138 3097 
Q 1578 3097 1268 2742 
Q 959 2388 959 1747 
Q 959 1106 1268 751 
Q 1578 397 2138 397 
Q 2388 397 2633 464 
Q 2878 531 3122 666 
L 3122 134 
Q 2881 22 2623 -34 
Q 2366 -91 2075 -91 
Q 1284 -91 818 406 
Q 353 903 353 1747 
Q 353 2603 823 3093 
Q 1294 3584 2113 3584 
Q 2378 3584 2631 3529 
Q 2884 3475 3122 3366 
z
" transform="scale(0.015625)"/>
       <path id="DejaVuSans-20" transform="scale(0.015625)"/>
       <path id="DejaVuSans-76" d="M 191 3500 
L 800 3500 
L 1894 563 
L 2988 3500 
L 3597 3500 
L 2284 0 
L 1503 0 
L 191 3500 
z
" transform="scale(0.015625)"/>
       <path id="DejaVuSans-6f" d="M 1959 3097 
Q 1497 3097 1228 2736 
Q 959 2375 959 1747 
Q 959 1119 1226 758 
Q 1494 397 1959 397 
Q 2419 397 2687 759 
Q 2956 1122 2956 1747 
Q 2956 2369 2687 2733 
Q 2419 3097 1959 3097 
z
M 1959 3584 
Q 2709 3584 3137 3096 
Q 3566 2609 3566 1747 
Q 3566 888 3137 398 
Q 2709 -91 1959 -91 
Q 1206 -91 779 398 
Q 353 888 353 1747 
Q 353 2609 779 3096 
Q 1206 3584 1959 3584 
z
" transform="scale(0.015625)"/>
       <path id="DejaVuSans-6c" d="M 603 4863 
L 1178 4863 
L 1178 0 
L 603 0 
L 603 4863 
z
" transform="scale(0.015625)"/>
       <path id="DejaVuSans-74" d="M 1172 4494 
L 1172 3500 
L 2356 3500 
L 2356 3053 
L 1172 3053 
L 1172 1153 
Q 1172 725 1289 603 
Q 1406 481 1766 481 
L 2356 481 
L 2356 0 
L 1766 0 
Q 1100 0 847 248 
Q 594 497 594 1153 
L 594 3053 
L 172 3053 
L 172 3500 
L 594 3500 
L 594 4494 
L 1172 4494 
z
" transform="scale(0.015625)"/>
       <path id="DejaVuSans-61" d="M 2194 1759 
Q 1497 1759 1228 1600 
Q 959 1441 959 1056 
Q 959 750 1161 570 
Q 1363 391 1709 391 
Q 2188 391 2477 730 
Q 2766 1069 2766 1631 
L 2766 1759 
L 2194 1759 
z
M 3341 1997 
L 3341 0 
L 2766 0 
L 2766 531 
Q 2569 213 2275 61 
Q 1981 -91 1556 -91 
Q 1019 -91 701 211 
Q 384 513 384 1019 
Q 384 1609 779 1909 
Q 1175 2209 1959 2209 
L 2766 2209 
L 2766 2266 
Q 2766 2663 2505 2880 
Q 2244 3097 1772 3097 
Q 1472 3097 1187 3025 
Q 903 2953 641 2809 
L 641 3341 
Q 956 3463 1253 3523 
Q 1550 3584 1831 3584 
Q 2591 3584 2966 3190 
Q 3341 2797 3341 1997 
z
" transform="scale(0.015625)"/>
       <path id="DejaVuSans-67" d="M 2906 1791 
Q 2906 2416 2648 2759 
Q 2391 3103 1925 3103 
Q 1463 3103 1205 2759 
Q 947 2416 947 1791 
Q 947 1169 1205 825 
Q 1463 481 1925 481 
Q 2391 481 2648 825 
Q 2906 1169 2906 1791 
z
M 3481 434 
Q 3481 -459 3084 -895 
Q 2688 -1331 1869 -1331 
Q 1566 -1331 1297 -1286 
Q 1028 -1241 775 -1147 
L 775 -588 
Q 1028 -725 1275 -790 
Q 1522 -856 1778 -856 
Q 2344 -856 2625 -561 
Q 2906 -266 2906 331 
L 2906 616 
Q 2728 306 2450 153 
Q 2172 0 1784 0 
Q 1141 0 747 490 
Q 353 981 353 1791 
Q 353 2603 747 3093 
Q 1141 3584 1784 3584 
Q 2172 3584 2450 3431 
Q 2728 3278 2906 2969 
L 2906 3500 
L 3481 3500 
L 3481 434 
z
" transform="scale(0.015625)"/>
       <path id="DejaVuSans-65" d="M 3597 1894 
L 3597 1613 
L 953 1613 
Q 991 1019 1311 708 
Q 1631 397 2203 397 
Q 2534 397 2845 478 
Q 3156 559 3463 722 
L 3463 178 
Q 3153 47 2828 -22 
Q 2503 -91 2169 -91 
Q 1331 -91 842 396 
Q 353 884 353 1716 
Q 353 2575 817 3079 
Q 1281 3584 2069 3584 
Q 2775 3584 3186 3129 
Q 3597 2675 3597 1894 
z
M 3022 2063 
Q 3016 2534 2758 2815 
Q 2500 3097 2075 3097 
Q 1594 3097 1305 2825 
Q 1016 2553 972 2059 
L 3022 2063 
z
" transform="scale(0.015625)"/>
      </defs>
      <use xlink:href="#DejaVuSans-56"/>
      <use xlink:href="#DejaVuSans-63" x="68.408203"/>
      <use xlink:href="#DejaVuSans-20" x="123.388672"/>
      <use xlink:href="#DejaVuSans-76" x="155.175781"/>
      <use xlink:href="#DejaVuSans-6f" x="214.355469"/>
      <use xlink:href="#DejaVuSans-6c" x="275.537109"/>
      <use xlink:href="#DejaVuSans-74" x="303.320312"/>
      <use xlink:href="#DejaVuSans-61" x="342.529297"/>
      <use xlink:href="#DejaVuSans-67" x="403.808594"/>
      <use xlink:href="#DejaVuSans-65" x="467.285156"/>
     </g>
    </g>
   </g>
   <g id="matplotlib.axis_2">
    <g id="ytick_1">
     <g id="line2d_11">
      <path d="M 57.6 295.488 
L 414.72 295.488 
" clip-path="url(#pd387320144)" style="fill: none; stroke: #b0b0b0; stroke-width: 0.8; stroke-linecap: square"/>
     </g>
     <g id="line2d_12">
      <defs>
       <path id="m71e245468c" d="M 0 0 
L -3.5 0 
" style="stroke: #000000; stroke-width: 0.8"/>
      </defs>
      <g>
       <use xlink:href="#m71e245468c" x="57.6" y="295.488" style="stroke: #000000; stroke-width: 0.8"/>
      </g>
     </g>
     <g id="text_7">
      <!-- 0 -->
      <g transform="translate(44.2375 299.287219) scale(0.1 -0.1)">
       <use xlink:href="#DejaVuSans-30"/>
      </g>
     </g>
    </g>
    <g id="ytick_2">
     <g id="line2d_13">
      <path d="M 57.6 241.245423 
L 414.72 241.245423 
" clip-path="url(#pd387320144)" style="fill: none; stroke: #b0b0b0; stroke-width: 0.8; stroke-linecap: square"/>
     </g>
     <g id="line2d_14">
      <g>
       <use xlink:href="#m71e245468c" x="57.6" y="241.245423" style="stroke: #000000; stroke-width: 0.8"/>
      </g>
     </g>
     <g id="text_8">
      <!-- 1 -->
      <g transform="translate(44.2375 245.044642) scale(0.1 -0.1)">
       <use xlink:href="#DejaVuSans-31"/>
      </g>
     </g>
    </g>
    <g id="ytick_3">
     <g id="line2d_15">
      <path d="M 57.6 187.002847 
L 414.72 187.002847 
" clip-path="url(#pd387320144)" style="fill: none; stroke: #b0b0b0; stroke-width: 0.8; stroke-linecap: square"/>
     </g>
     <g id="line2d_16">
      <g>
       <use xlink:href="#m71e245468c" x="57.6" y="187.002847" style="stroke: #000000; stroke-width: 0.8"/>
      </g>
     </g>
     <g id="text_9">
      <!-- 2 -->
      <g transform="translate(44.2375 190.802065) scale(0.1 -0.1)">
       <use xlink:href="#DejaVuSans-32"/>
      </g>
     </g>
    </g>
    <g id="ytick_4">
     <g id="line2d_17">
      <path d="M 57.6 132.76027 
L 414.72 132.76027 
" clip-path="url(#pd387320144)" style="fill: none; stroke: #b0b0b0; stroke-width: 0.8; stroke-linecap: square"/>
     </g>
     <g id="line2d_18">
      <g>
       <use xlink:href="#m71e245468c" x="57.6" y="132.76027" style="stroke: #000000; stroke-width: 0.8"/>
      </g>
     </g>
     <g id="text_10">
      <!-- 3 -->
      <g transform="translate(44.2375 136.559489) scale(0.1 -0.1)">
       <defs>
        <path id="DejaVuSans-33" d="M 2597 2516 
Q 3050 2419 3304 2112 
Q 3559 1806 3559 1356 
Q 3559 666 3084 287 
Q 2609 -91 1734 -91 
Q 1441 -91 1130 -33 
Q 819 25 488 141 
L 488 750 
Q 750 597 1062 519 
Q 1375 441 1716 441 
Q 2309 441 2620 675 
Q 2931 909 2931 1356 
Q 2931 1769 2642 2001 
Q 2353 2234 1838 2234 
L 1294 2234 
L 1294 2753 
L 1863 2753 
Q 2328 2753 2575 2939 
Q 2822 3125 2822 3475 
Q 2822 3834 2567 4026 
Q 2313 4219 1838 4219 
Q 1578 4219 1281 4162 
Q 984 4106 628 3988 
L 628 4550 
Q 988 4650 1302 4700 
Q 1616 4750 1894 4750 
Q 2613 4750 3031 4423 
Q 3450 4097 3450 3541 
Q 3450 3153 3228 2886 
Q 3006 2619 2597 2516 
z
" transform="scale(0.015625)"/>
       </defs>
       <use xlink:href="#DejaVuSans-33"/>
      </g>
     </g>
    </g>
    <g id="ytick_5">
     <g id="line2d_19">
      <path d="M 57.6 78.517693 
L 414.72 78.517693 
" clip-path="url(#pd387320144)" style="fill: none; stroke: #b0b0b0; stroke-width: 0.8; stroke-linecap: square"/>
     </g>
     <g id="line2d_20">
      <g>
       <use xlink:href="#m71e245468c" x="57.6" y="78.517693" style="stroke: #000000; stroke-width: 0.8"/>
      </g>
     </g>
     <g id="text_11">
      <!-- 4 -->
      <g transform="translate(44.2375 82.316912) scale(0.1 -0.1)">
       <use xlink:href="#DejaVuSans-34"/>
      </g>
     </g>
    </g>
    <g id="text_12">
     <!-- frequency [MHz] -->
     <g transform="translate(38.157812 215.793625) rotate(-90) scale(0.1 -0.1)">
      <defs>
       <path id="DejaVuSans-66" d="M 2375 4863 
L 2375 4384 
L 1825 4384 
Q 1516 4384 1395 4259 
Q 1275 4134 1275 3809 
L 1275 3500 
L 2222 3500 
L 2222 3053 
L 1275 3053 
L 1275 0 
L 697 0 
L 697 3053 
L 147 3053 
L 147 3500 
L 697 3500 
L 697 3744 
Q 697 4328 969 4595 
Q 1241 4863 1831 4863 
L 2375 4863 
z
" transform="scale(0.015625)"/>
       <path id="DejaVuSans-72" d="M 2631 2963 
Q 2534 3019 2420 3045 
Q 2306 3072 2169 3072 
Q 1681 3072 1420 2755 
Q 1159 2438 1159 1844 
L 1159 0 
L 581 0 
L 581 3500 
L 1159 3500 
L 1159 2956 
Q 1341 3275 1631 3429 
Q 1922 3584 2338 3584 
Q 2397 3584 2469 3576 
Q 2541 3569 2628 3553 
L 2631 2963 
z
" transform="scale(0.015625)"/>
       <path id="DejaVuSans-71" d="M 947 1747 
Q 947 1113 1208 752 
Q 1469 391 1925 391 
Q 2381 391 2643 752 
Q 2906 1113 2906 1747 
Q 2906 2381 2643 2742 
Q 2381 3103 1925 3103 
Q 1469 3103 1208 2742 
Q 947 2381 947 1747 
z
M 2906 525 
Q 2725 213 2448 61 
Q 2172 -91 1784 -91 
Q 1150 -91 751 415 
Q 353 922 353 1747 
Q 353 2572 751 3078 
Q 1150 3584 1784 3584 
Q 2172 3584 2448 3432 
Q 2725 3281 2906 2969 
L 2906 3500 
L 3481 3500 
L 3481 -1331 
L 2906 -1331 
L 2906 525 
z
" transform="scale(0.015625)"/>
       <path id="DejaVuSans-75" d="M 544 1381 
L 544 3500 
L 1119 3500 
L 1119 1403 
Q 1119 906 1312 657 
Q 1506 409 1894 409 
Q 2359 409 2629 706 
Q 2900 1003 2900 1516 
L 2900 3500 
L 3475 3500 
L 3475 0 
L 2900 0 
L 2900 538 
Q 2691 219 2414 64 
Q 2138 -91 1772 -91 
Q 1169 -91 856 284 
Q 544 659 544 1381 
z
M 1991 3584 
L 1991 3584 
z
" transform="scale(0.015625)"/>
       <path id="DejaVuSans-6e" d="M 3513 2113 
L 3513 0 
L 2938 0 
L 2938 2094 
Q 2938 2591 2744 2837 
Q 2550 3084 2163 3084 
Q 1697 3084 1428 2787 
Q 1159 2491 1159 1978 
L 1159 0 
L 581 0 
L 581 3500 
L 1159 3500 
L 1159 2956 
Q 1366 3272 1645 3428 
Q 1925 3584 2291 3584 
Q 2894 3584 3203 3211 
Q 3513 2838 3513 2113 
z
" transform="scale(0.015625)"/>
       <path id="DejaVuSans-79" d="M 2059 -325 
Q 1816 -950 1584 -1140 
Q 1353 -1331 966 -1331 
L 506 -1331 
L 506 -850 
L 844 -850 
Q 1081 -850 1212 -737 
Q 1344 -625 1503 -206 
L 1606 56 
L 191 3500 
L 800 3500 
L 1894 763 
L 2988 3500 
L 3597 3500 
L 2059 -325 
z
" transform="scale(0.015625)"/>
       <path id="DejaVuSans-5b" d="M 550 4863 
L 1875 4863 
L 1875 4416 
L 1125 4416 
L 1125 -397 
L 1875 -397 
L 1875 -844 
L 550 -844 
L 550 4863 
z
" transform="scale(0.015625)"/>
       <path id="DejaVuSans-4d" d="M 628 4666 
L 1569 4666 
L 2759 1491 
L 3956 4666 
L 4897 4666 
L 4897 0 
L 4281 0 
L 4281 4097 
L 3078 897 
L 2444 897 
L 1241 4097 
L 1241 0 
L 628 0 
L 628 4666 
z
" transform="scale(0.015625)"/>
       <path id="DejaVuSans-48" d="M 628 4666 
L 1259 4666 
L 1259 2753 
L 3553 2753 
L 3553 4666 
L 4184 4666 
L 4184 0 
L 3553 0 
L 3553 2222 
L 1259 2222 
L 1259 0 
L 628 0 
L 628 4666 
z
" transform="scale(0.015625)"/>
       <path id="DejaVuSans-7a" d="M 353 3500 
L 3084 3500 
L 3084 2975 
L 922 459 
L 3084 459 
L 3084 0 
L 275 0 
L 275 525 
L 2438 3041 
L 353 3041 
L 353 3500 
z
" transform="scale(0.015625)"/>
       <path id="DejaVuSans-5d" d="M 1947 4863 
L 1947 -844 
L 622 -844 
L 622 -397 
L 1369 -397 
L 1369 4416 
L 622 4416 
L 622 4863 
L 1947 4863 
z
" transform="scale(0.015625)"/>
      </defs>
      <use xlink:href="#DejaVuSans-66"/>
      <use xlink:href="#DejaVuSans-72" x="35.205078"/>
      <use xlink:href="#DejaVuSans-65" x="74.068359"/>
      <use xlink:href="#DejaVuSans-71" x="135.591797"/>
      <use xlink:href="#DejaVuSans-75" x="199.068359"/>
      <use xlink:href="#DejaVuSans-65" x="262.447266"/>
      <use xlink:href="#DejaVuSans-6e" x="323.970703"/>
      <use xlink:href="#DejaVuSans-63" x="387.349609"/>
      <use xlink:href="#DejaVuSans-79" x="442.330078"/>
      <use xlink:href="#DejaVuSans-20" x="501.509766"/>
      <use xlink:href="#DejaVuSans-5b" x="533.296875"/>
      <use xlink:href="#DejaVuSans-4d" x="572.310547"/>
      <use xlink:href="#DejaVuSans-48" x="658.589844"/>
      <use xlink:href="#DejaVuSans-7a" x="733.785156"/>
      <use xlink:href="#DejaVuSans-5d" x="786.275391"/>
     </g>
    </g>
   </g>
   <g id="line2d_21">
    <path d="M 76.930084 258.350049 
L 125.170673 184.295077 
L 163.126394 137.628959 
L 195.725119 110.029345 
L 224.942526 89.827382 
L 251.798324 75.896651 
L 276.901501 65.810073 
L 300.655693 53.568 
L 323.326447 295.488 
" clip-path="url(#pd387320144)" style="fill: none; stroke: #1f77b4; stroke-width: 1.5; stroke-linecap: square"/>
    <defs>
     <path id="m351d0663f3" d="M 0 -3 
L -0.673542 -0.927051 
L -2.85317 -0.927051 
L -1.089814 0.354102 
L -1.763356 2.427051 
L -0 1.145898 
L 1.763356 2.427051 
L 1.089814 0.354102 
L 2.85317 -0.927051 
L 0.673542 -0.927051 
z
" style="stroke: #1f77b4; stroke-linejoin: bevel"/>
    </defs>
    <g clip-path="url(#pd387320144)">
     <use xlink:href="#m351d0663f3" x="76.930084" y="258.350049" style="fill: #1f77b4; stroke: #1f77b4; stroke-linejoin: bevel"/>
     <use xlink:href="#m351d0663f3" x="125.170673" y="184.295077" style="fill: #1f77b4; stroke: #1f77b4; stroke-linejoin: bevel"/>
     <use xlink:href="#m351d0663f3" x="163.126394" y="137.628959" style="fill: #1f77b4; stroke: #1f77b4; stroke-linejoin: bevel"/>
     <use xlink:href="#m351d0663f3" x="195.725119" y="110.029345" style="fill: #1f77b4; stroke: #1f77b4; stroke-linejoin: bevel"/>
     <use xlink:href="#m351d0663f3" x="224.942526" y="89.827382" style="fill: #1f77b4; stroke: #1f77b4; stroke-linejoin: bevel"/>
     <use xlink:href="#m351d0663f3" x="251.798324" y="75.896651" style="fill: #1f77b4; stroke: #1f77b4; stroke-linejoin: bevel"/>
     <use xlink:href="#m351d0663f3" x="276.901501" y="65.810073" style="fill: #1f77b4; stroke: #1f77b4; stroke-linejoin: bevel"/>
     <use xlink:href="#m351d0663f3" x="300.655693" y="53.568" style="fill: #1f77b4; stroke: #1f77b4; stroke-linejoin: bevel"/>
     <use xlink:href="#m351d0663f3" x="323.326447" y="295.488" style="fill: #1f77b4; stroke: #1f77b4; stroke-linejoin: bevel"/>
    </g>
   </g>
   <g id="line2d_22">
    <path d="M 75.963134 261.698107 
L 127.773047 189.941268 
L 168.748939 144.566413 
L 204.01377 118.686326 
L 235.65298 101.987038 
L 264.767709 88.010217 
L 292.005896 76.559598 
L 317.795958 69.291594 
L 342.42823 58.649811 
" clip-path="url(#pd387320144)" style="fill: none; stroke: #ff7f0e; stroke-width: 1.5; stroke-linecap: square"/>
    <defs>
     <path id="mdc85a22520" d="M 0 -3 
L -0.673542 -0.927051 
L -2.85317 -0.927051 
L -1.089814 0.354102 
L -1.763356 2.427051 
L -0 1.145898 
L 1.763356 2.427051 
L 1.089814 0.354102 
L 2.85317 -0.927051 
L 0.673542 -0.927051 
z
" style="stroke: #ff7f0e; stroke-linejoin: bevel"/>
    </defs>
    <g clip-path="url(#pd387320144)">
     <use xlink:href="#mdc85a22520" x="75.963134" y="261.698107" style="fill: #ff7f0e; stroke: #ff7f0e; stroke-linejoin: bevel"/>
     <use xlink:href="#mdc85a22520" x="127.773047" y="189.941268" style="fill: #ff7f0e; stroke: #ff7f0e; stroke-linejoin: bevel"/>
     <use xlink:href="#mdc85a22520" x="168.748939" y="144.566413" style="fill: #ff7f0e; stroke: #ff7f0e; stroke-linejoin: bevel"/>
     <use xlink:href="#mdc85a22520" x="204.01377" y="118.686326" style="fill: #ff7f0e; stroke: #ff7f0e; stroke-linejoin: bevel"/>
     <use xlink:href="#mdc85a22520" x="235.65298" y="101.987038" style="fill: #ff7f0e; stroke: #ff7f0e; stroke-linejoin: bevel"/>
     <use xlink:href="#mdc85a22520" x="264.767709" y="88.010217" style="fill: #ff7f0e; stroke: #ff7f0e; stroke-linejoin: bevel"/>
     <use xlink:href="#mdc85a22520" x="292.005896" y="76.559598" style="fill: #ff7f0e; stroke: #ff7f0e; stroke-linejoin: bevel"/>
     <use xlink:href="#mdc85a22520" x="317.795958" y="69.291594" style="fill: #ff7f0e; stroke: #ff7f0e; stroke-linejoin: bevel"/>
     <use xlink:href="#mdc85a22520" x="342.42823" y="58.649811" style="fill: #ff7f0e; stroke: #ff7f0e; stroke-linejoin: bevel"/>
    </g>
   </g>
   <g id="line2d_23">
    <path d="M 75.198 264.256489 
L 130.017817 193.907668 
L 173.596083 151.433864 
L 211.180037 127.517404 
L 244.943634 109.232045 
L 276.044665 96.351557 
L 305.166475 85.879966 
L 332.762268 78.808045 
L 359.143618 70.538277 
" clip-path="url(#pd387320144)" style="fill: none; stroke: #2ca02c; stroke-width: 1.5; stroke-linecap: square"/>
    <defs>
     <path id="m0be7f5b4b3" d="M 0 -3 
L -0.673542 -0.927051 
L -2.85317 -0.927051 
L -1.089814 0.354102 
L -1.763356 2.427051 
L -0 1.145898 
L 1.763356 2.427051 
L 1.089814 0.354102 
L 2.85317 -0.927051 
L 0.673542 -0.927051 
z
" style="stroke: #2ca02c; stroke-linejoin: bevel"/>
    </defs>
    <g clip-path="url(#pd387320144)">
     <use xlink:href="#m0be7f5b4b3" x="75.198" y="264.256489" style="fill: #2ca02c; stroke: #2ca02c; stroke-linejoin: bevel"/>
     <use xlink:href="#m0be7f5b4b3" x="130.017817" y="193.907668" style="fill: #2ca02c; stroke: #2ca02c; stroke-linejoin: bevel"/>
     <use xlink:href="#m0be7f5b4b3" x="173.596083" y="151.433864" style="fill: #2ca02c; stroke: #2ca02c; stroke-linejoin: bevel"/>
     <use xlink:href="#m0be7f5b4b3" x="211.180037" y="127.517404" style="fill: #2ca02c; stroke: #2ca02c; stroke-linejoin: bevel"/>
     <use xlink:href="#m0be7f5b4b3" x="244.943634" y="109.232045" style="fill: #2ca02c; stroke: #2ca02c; stroke-linejoin: bevel"/>
     <use xlink:href="#m0be7f5b4b3" x="276.044665" y="96.351557" style="fill: #2ca02c; stroke: #2ca02c; stroke-linejoin: bevel"/>
     <use xlink:href="#m0be7f5b4b3" x="305.166475" y="85.879966" style="fill: #2ca02c; stroke: #2ca02c; stroke-linejoin: bevel"/>
     <use xlink:href="#m0be7f5b4b3" x="332.762268" y="78.808045" style="fill: #2ca02c; stroke: #2ca02c; stroke-linejoin: bevel"/>
     <use xlink:href="#m0be7f5b4b3" x="359.143618" y="70.538277" style="fill: #2ca02c; stroke: #2ca02c; stroke-linejoin: bevel"/>
    </g>
   </g>
   <g id="line2d_24">
    <path d="M 74.451632 266.974242 
L 132.538756 197.602125 
L 179.016812 158.53808 
L 219.210221 134.081543 
L 255.384998 115.256153 
L 288.752042 106.930319 
L 320.033647 92.933876 
L 349.707798 88.247233 
L 378.100235 79.630654 
" clip-path="url(#pd387320144)" style="fill: none; stroke: #d62728; stroke-width: 1.5; stroke-linecap: square"/>
    <defs>
     <path id="m1d95361ec2" d="M 0 -3 
L -0.673542 -0.927051 
L -2.85317 -0.927051 
L -1.089814 0.354102 
L -1.763356 2.427051 
L -0 1.145898 
L 1.763356 2.427051 
L 1.089814 0.354102 
L 2.85317 -0.927051 
L 0.673542 -0.927051 
z
" style="stroke: #d62728; stroke-linejoin: bevel"/>
    </defs>
    <g clip-path="url(#pd387320144)">
     <use xlink:href="#m1d95361ec2" x="74.451632" y="266.974242" style="fill: #d62728; stroke: #d62728; stroke-linejoin: bevel"/>
     <use xlink:href="#m1d95361ec2" x="132.538756" y="197.602125" style="fill: #d62728; stroke: #d62728; stroke-linejoin: bevel"/>
     <use xlink:href="#m1d95361ec2" x="179.016812" y="158.53808" style="fill: #d62728; stroke: #d62728; stroke-linejoin: bevel"/>
     <use xlink:href="#m1d95361ec2" x="219.210221" y="134.081543" style="fill: #d62728; stroke: #d62728; stroke-linejoin: bevel"/>
     <use xlink:href="#m1d95361ec2" x="255.384998" y="115.256153" style="fill: #d62728; stroke: #d62728; stroke-linejoin: bevel"/>
     <use xlink:href="#m1d95361ec2" x="288.752042" y="106.930319" style="fill: #d62728; stroke: #d62728; stroke-linejoin: bevel"/>
     <use xlink:href="#m1d95361ec2" x="320.033647" y="92.933876" style="fill: #d62728; stroke: #d62728; stroke-linejoin: bevel"/>
     <use xlink:href="#m1d95361ec2" x="349.707798" y="88.247233" style="fill: #d62728; stroke: #d62728; stroke-linejoin: bevel"/>
     <use xlink:href="#m1d95361ec2" x="378.100235" y="79.630654" style="fill: #d62728; stroke: #d62728; stroke-linejoin: bevel"/>
    </g>
   </g>
   <g id="line2d_25">
    <path d="M 73.832727 269.555087 
L 135.254432 202.350588 
L 184.759739 165.810107 
L 227.725474 141.593943 
L 266.484922 126.397918 
L 302.298553 112.961226 
L 335.927605 103.213438 
L 367.878391 97.473249 
L 398.487273 88.350906 
" clip-path="url(#pd387320144)" style="fill: none; stroke: #9467bd; stroke-width: 1.5; stroke-linecap: square"/>
    <defs>
     <path id="me8c4fee867" d="M 0 -3 
L -0.673542 -0.927051 
L -2.85317 -0.927051 
L -1.089814 0.354102 
L -1.763356 2.427051 
L -0 1.145898 
L 1.763356 2.427051 
L 1.089814 0.354102 
L 2.85317 -0.927051 
L 0.673542 -0.927051 
z
" style="stroke: #9467bd; stroke-linejoin: bevel"/>
    </defs>
    <g clip-path="url(#pd387320144)">
     <use xlink:href="#me8c4fee867" x="73.832727" y="269.555087" style="fill: #9467bd; stroke: #9467bd; stroke-linejoin: bevel"/>
     <use xlink:href="#me8c4fee867" x="135.254432" y="202.350588" style="fill: #9467bd; stroke: #9467bd; stroke-linejoin: bevel"/>
     <use xlink:href="#me8c4fee867" x="184.759739" y="165.810107" style="fill: #9467bd; stroke: #9467bd; stroke-linejoin: bevel"/>
     <use xlink:href="#me8c4fee867" x="227.725474" y="141.593943" style="fill: #9467bd; stroke: #9467bd; stroke-linejoin: bevel"/>
     <use xlink:href="#me8c4fee867" x="266.484922" y="126.397918" style="fill: #9467bd; stroke: #9467bd; stroke-linejoin: bevel"/>
     <use xlink:href="#me8c4fee867" x="302.298553" y="112.961226" style="fill: #9467bd; stroke: #9467bd; stroke-linejoin: bevel"/>
     <use xlink:href="#me8c4fee867" x="335.927605" y="103.213438" style="fill: #9467bd; stroke: #9467bd; stroke-linejoin: bevel"/>
     <use xlink:href="#me8c4fee867" x="367.878391" y="97.473249" style="fill: #9467bd; stroke: #9467bd; stroke-linejoin: bevel"/>
     <use xlink:href="#me8c4fee867" x="398.487273" y="88.350906" style="fill: #9467bd; stroke: #9467bd; stroke-linejoin: bevel"/>
    </g>
   </g>
   <g id="patch_3">
    <path d="M 57.6 307.584 
L 57.6 41.472 
" style="fill: none; stroke: #000000; stroke-width: 0.8; stroke-linejoin: miter; stroke-linecap: square"/>
   </g>
   <g id="patch_4">
    <path d="M 414.72 307.584 
L 414.72 41.472 
" style="fill: none; stroke: #000000; stroke-width: 0.8; stroke-linejoin: miter; stroke-linecap: square"/>
   </g>
   <g id="patch_5">
    <path d="M 57.6 307.584 
L 414.72 307.584 
" style="fill: none; stroke: #000000; stroke-width: 0.8; stroke-linejoin: miter; stroke-linecap: square"/>
   </g>
   <g id="patch_6">
    <path d="M 57.6 41.472 
L 414.72 41.472 
" style="fill: none; stroke: #000000; stroke-width: 0.8; stroke-linejoin: miter; stroke-linecap: square"/>
   </g>
   <g id="legend_1">
    <g id="patch_7">
     <path d="M 212.460625 302.584 
L 407.72 302.584 
Q 409.72 302.584 409.72 300.584 
L 409.72 228.193375 
Q 409.72 226.193375 407.72 226.193375 
L 212.460625 226.193375 
Q 210.460625 226.193375 210.460625 228.193375 
L 210.460625 300.584 
Q 210.460625 302.584 212.460625 302.584 
z
" style="fill: #ffffff; opacity: 0.8; stroke: #cccccc; stroke-linejoin: miter"/>
    </g>
    <g id="line2d_26">
     <path d="M 214.460625 234.291812 
L 224.460625 234.291812 
L 234.460625 234.291812 
" style="fill: none; stroke: #1f77b4; stroke-width: 1.5; stroke-linecap: square"/>
     <g>
      <use xlink:href="#m351d0663f3" x="224.460625" y="234.291812" style="fill: #1f77b4; stroke: #1f77b4; stroke-linejoin: bevel"/>
     </g>
    </g>
    <g id="text_13">
     <!-- corner = tt, temperature = '0' -->
     <g transform="translate(242.460625 237.791812) scale(0.1 -0.1)">
      <defs>
       <path id="DejaVuSans-3d" d="M 678 2906 
L 4684 2906 
L 4684 2381 
L 678 2381 
L 678 2906 
z
M 678 1631 
L 4684 1631 
L 4684 1100 
L 678 1100 
L 678 1631 
z
" transform="scale(0.015625)"/>
       <path id="DejaVuSans-2c" d="M 750 794 
L 1409 794 
L 1409 256 
L 897 -744 
L 494 -744 
L 750 256 
L 750 794 
z
" transform="scale(0.015625)"/>
       <path id="DejaVuSans-6d" d="M 3328 2828 
Q 3544 3216 3844 3400 
Q 4144 3584 4550 3584 
Q 5097 3584 5394 3201 
Q 5691 2819 5691 2113 
L 5691 0 
L 5113 0 
L 5113 2094 
Q 5113 2597 4934 2840 
Q 4756 3084 4391 3084 
Q 3944 3084 3684 2787 
Q 3425 2491 3425 1978 
L 3425 0 
L 2847 0 
L 2847 2094 
Q 2847 2600 2669 2842 
Q 2491 3084 2119 3084 
Q 1678 3084 1418 2786 
Q 1159 2488 1159 1978 
L 1159 0 
L 581 0 
L 581 3500 
L 1159 3500 
L 1159 2956 
Q 1356 3278 1631 3431 
Q 1906 3584 2284 3584 
Q 2666 3584 2933 3390 
Q 3200 3197 3328 2828 
z
" transform="scale(0.015625)"/>
       <path id="DejaVuSans-70" d="M 1159 525 
L 1159 -1331 
L 581 -1331 
L 581 3500 
L 1159 3500 
L 1159 2969 
Q 1341 3281 1617 3432 
Q 1894 3584 2278 3584 
Q 2916 3584 3314 3078 
Q 3713 2572 3713 1747 
Q 3713 922 3314 415 
Q 2916 -91 2278 -91 
Q 1894 -91 1617 61 
Q 1341 213 1159 525 
z
M 3116 1747 
Q 3116 2381 2855 2742 
Q 2594 3103 2138 3103 
Q 1681 3103 1420 2742 
Q 1159 2381 1159 1747 
Q 1159 1113 1420 752 
Q 1681 391 2138 391 
Q 2594 391 2855 752 
Q 3116 1113 3116 1747 
z
" transform="scale(0.015625)"/>
       <path id="DejaVuSans-27" d="M 1147 4666 
L 1147 2931 
L 616 2931 
L 616 4666 
L 1147 4666 
z
" transform="scale(0.015625)"/>
      </defs>
      <use xlink:href="#DejaVuSans-63"/>
      <use xlink:href="#DejaVuSans-6f" x="54.980469"/>
      <use xlink:href="#DejaVuSans-72" x="116.162109"/>
      <use xlink:href="#DejaVuSans-6e" x="155.525391"/>
      <use xlink:href="#DejaVuSans-65" x="218.904297"/>
      <use xlink:href="#DejaVuSans-72" x="280.427734"/>
      <use xlink:href="#DejaVuSans-20" x="321.541016"/>
      <use xlink:href="#DejaVuSans-3d" x="353.328125"/>
      <use xlink:href="#DejaVuSans-20" x="437.117188"/>
      <use xlink:href="#DejaVuSans-74" x="468.904297"/>
      <use xlink:href="#DejaVuSans-74" x="508.113281"/>
      <use xlink:href="#DejaVuSans-2c" x="547.322266"/>
      <use xlink:href="#DejaVuSans-20" x="579.109375"/>
      <use xlink:href="#DejaVuSans-74" x="610.896484"/>
      <use xlink:href="#DejaVuSans-65" x="650.105469"/>
      <use xlink:href="#DejaVuSans-6d" x="711.628906"/>
      <use xlink:href="#DejaVuSans-70" x="809.041016"/>
      <use xlink:href="#DejaVuSans-65" x="872.517578"/>
      <use xlink:href="#DejaVuSans-72" x="934.041016"/>
      <use xlink:href="#DejaVuSans-61" x="975.154297"/>
      <use xlink:href="#DejaVuSans-74" x="1036.433594"/>
      <use xlink:href="#DejaVuSans-75" x="1075.642578"/>
      <use xlink:href="#DejaVuSans-72" x="1139.021484"/>
      <use xlink:href="#DejaVuSans-65" x="1177.884766"/>
      <use xlink:href="#DejaVuSans-20" x="1239.408203"/>
      <use xlink:href="#DejaVuSans-3d" x="1271.195312"/>
      <use xlink:href="#DejaVuSans-20" x="1354.984375"/>
      <use xlink:href="#DejaVuSans-27" x="1386.771484"/>
      <use xlink:href="#DejaVuSans-30" x="1414.261719"/>
      <use xlink:href="#DejaVuSans-27" x="1477.884766"/>
     </g>
    </g>
    <g id="line2d_27">
     <path d="M 214.460625 248.969937 
L 224.460625 248.969937 
L 234.460625 248.969937 
" style="fill: none; stroke: #ff7f0e; stroke-width: 1.5; stroke-linecap: square"/>
     <g>
      <use xlink:href="#mdc85a22520" x="224.460625" y="248.969937" style="fill: #ff7f0e; stroke: #ff7f0e; stroke-linejoin: bevel"/>
     </g>
    </g>
    <g id="text_14">
     <!-- corner = tt, temperature = '27' -->
     <g transform="translate(242.460625 252.469937) scale(0.1 -0.1)">
      <defs>
       <path id="DejaVuSans-37" d="M 525 4666 
L 3525 4666 
L 3525 4397 
L 1831 0 
L 1172 0 
L 2766 4134 
L 525 4134 
L 525 4666 
z
" transform="scale(0.015625)"/>
      </defs>
      <use xlink:href="#DejaVuSans-63"/>
      <use xlink:href="#DejaVuSans-6f" x="54.980469"/>
      <use xlink:href="#DejaVuSans-72" x="116.162109"/>
      <use xlink:href="#DejaVuSans-6e" x="155.525391"/>
      <use xlink:href="#DejaVuSans-65" x="218.904297"/>
      <use xlink:href="#DejaVuSans-72" x="280.427734"/>
      <use xlink:href="#DejaVuSans-20" x="321.541016"/>
      <use xlink:href="#DejaVuSans-3d" x="353.328125"/>
      <use xlink:href="#DejaVuSans-20" x="437.117188"/>
      <use xlink:href="#DejaVuSans-74" x="468.904297"/>
      <use xlink:href="#DejaVuSans-74" x="508.113281"/>
      <use xlink:href="#DejaVuSans-2c" x="547.322266"/>
      <use xlink:href="#DejaVuSans-20" x="579.109375"/>
      <use xlink:href="#DejaVuSans-74" x="610.896484"/>
      <use xlink:href="#DejaVuSans-65" x="650.105469"/>
      <use xlink:href="#DejaVuSans-6d" x="711.628906"/>
      <use xlink:href="#DejaVuSans-70" x="809.041016"/>
      <use xlink:href="#DejaVuSans-65" x="872.517578"/>
      <use xlink:href="#DejaVuSans-72" x="934.041016"/>
      <use xlink:href="#DejaVuSans-61" x="975.154297"/>
      <use xlink:href="#DejaVuSans-74" x="1036.433594"/>
      <use xlink:href="#DejaVuSans-75" x="1075.642578"/>
      <use xlink:href="#DejaVuSans-72" x="1139.021484"/>
      <use xlink:href="#DejaVuSans-65" x="1177.884766"/>
      <use xlink:href="#DejaVuSans-20" x="1239.408203"/>
      <use xlink:href="#DejaVuSans-3d" x="1271.195312"/>
      <use xlink:href="#DejaVuSans-20" x="1354.984375"/>
      <use xlink:href="#DejaVuSans-27" x="1386.771484"/>
      <use xlink:href="#DejaVuSans-32" x="1414.261719"/>
      <use xlink:href="#DejaVuSans-37" x="1477.884766"/>
      <use xlink:href="#DejaVuSans-27" x="1541.507812"/>
     </g>
    </g>
    <g id="line2d_28">
     <path d="M 214.460625 263.648062 
L 224.460625 263.648062 
L 234.460625 263.648062 
" style="fill: none; stroke: #2ca02c; stroke-width: 1.5; stroke-linecap: square"/>
     <g>
      <use xlink:href="#m0be7f5b4b3" x="224.460625" y="263.648062" style="fill: #2ca02c; stroke: #2ca02c; stroke-linejoin: bevel"/>
     </g>
    </g>
    <g id="text_15">
     <!-- corner = tt, temperature = '50' -->
     <g transform="translate(242.460625 267.148062) scale(0.1 -0.1)">
      <defs>
       <path id="DejaVuSans-35" d="M 691 4666 
L 3169 4666 
L 3169 4134 
L 1269 4134 
L 1269 2991 
Q 1406 3038 1543 3061 
Q 1681 3084 1819 3084 
Q 2600 3084 3056 2656 
Q 3513 2228 3513 1497 
Q 3513 744 3044 326 
Q 2575 -91 1722 -91 
Q 1428 -91 1123 -41 
Q 819 9 494 109 
L 494 744 
Q 775 591 1075 516 
Q 1375 441 1709 441 
Q 2250 441 2565 725 
Q 2881 1009 2881 1497 
Q 2881 1984 2565 2268 
Q 2250 2553 1709 2553 
Q 1456 2553 1204 2497 
Q 953 2441 691 2322 
L 691 4666 
z
" transform="scale(0.015625)"/>
      </defs>
      <use xlink:href="#DejaVuSans-63"/>
      <use xlink:href="#DejaVuSans-6f" x="54.980469"/>
      <use xlink:href="#DejaVuSans-72" x="116.162109"/>
      <use xlink:href="#DejaVuSans-6e" x="155.525391"/>
      <use xlink:href="#DejaVuSans-65" x="218.904297"/>
      <use xlink:href="#DejaVuSans-72" x="280.427734"/>
      <use xlink:href="#DejaVuSans-20" x="321.541016"/>
      <use xlink:href="#DejaVuSans-3d" x="353.328125"/>
      <use xlink:href="#DejaVuSans-20" x="437.117188"/>
      <use xlink:href="#DejaVuSans-74" x="468.904297"/>
      <use xlink:href="#DejaVuSans-74" x="508.113281"/>
      <use xlink:href="#DejaVuSans-2c" x="547.322266"/>
      <use xlink:href="#DejaVuSans-20" x="579.109375"/>
      <use xlink:href="#DejaVuSans-74" x="610.896484"/>
      <use xlink:href="#DejaVuSans-65" x="650.105469"/>
      <use xlink:href="#DejaVuSans-6d" x="711.628906"/>
      <use xlink:href="#DejaVuSans-70" x="809.041016"/>
      <use xlink:href="#DejaVuSans-65" x="872.517578"/>
      <use xlink:href="#DejaVuSans-72" x="934.041016"/>
      <use xlink:href="#DejaVuSans-61" x="975.154297"/>
      <use xlink:href="#DejaVuSans-74" x="1036.433594"/>
      <use xlink:href="#DejaVuSans-75" x="1075.642578"/>
      <use xlink:href="#DejaVuSans-72" x="1139.021484"/>
      <use xlink:href="#DejaVuSans-65" x="1177.884766"/>
      <use xlink:href="#DejaVuSans-20" x="1239.408203"/>
      <use xlink:href="#DejaVuSans-3d" x="1271.195312"/>
      <use xlink:href="#DejaVuSans-20" x="1354.984375"/>
      <use xlink:href="#DejaVuSans-27" x="1386.771484"/>
      <use xlink:href="#DejaVuSans-35" x="1414.261719"/>
      <use xlink:href="#DejaVuSans-30" x="1477.884766"/>
      <use xlink:href="#DejaVuSans-27" x="1541.507812"/>
     </g>
    </g>
    <g id="line2d_29">
     <path d="M 214.460625 278.326188 
L 224.460625 278.326188 
L 234.460625 278.326188 
" style="fill: none; stroke: #d62728; stroke-width: 1.5; stroke-linecap: square"/>
     <g>
      <use xlink:href="#m1d95361ec2" x="224.460625" y="278.326188" style="fill: #d62728; stroke: #d62728; stroke-linejoin: bevel"/>
     </g>
    </g>
    <g id="text_16">
     <!-- corner = tt, temperature = '75' -->
     <g transform="translate(242.460625 281.826188) scale(0.1 -0.1)">
      <use xlink:href="#DejaVuSans-63"/>
      <use xlink:href="#DejaVuSans-6f" x="54.980469"/>
      <use xlink:href="#DejaVuSans-72" x="116.162109"/>
      <use xlink:href="#DejaVuSans-6e" x="155.525391"/>
      <use xlink:href="#DejaVuSans-65" x="218.904297"/>
      <use xlink:href="#DejaVuSans-72" x="280.427734"/>
      <use xlink:href="#DejaVuSans-20" x="321.541016"/>
      <use xlink:href="#DejaVuSans-3d" x="353.328125"/>
      <use xlink:href="#DejaVuSans-20" x="437.117188"/>
      <use xlink:href="#DejaVuSans-74" x="468.904297"/>
      <use xlink:href="#DejaVuSans-74" x="508.113281"/>
      <use xlink:href="#DejaVuSans-2c" x="547.322266"/>
      <use xlink:href="#DejaVuSans-20" x="579.109375"/>
      <use xlink:href="#DejaVuSans-74" x="610.896484"/>
      <use xlink:href="#DejaVuSans-65" x="650.105469"/>
      <use xlink:href="#DejaVuSans-6d" x="711.628906"/>
      <use xlink:href="#DejaVuSans-70" x="809.041016"/>
      <use xlink:href="#DejaVuSans-65" x="872.517578"/>
      <use xlink:href="#DejaVuSans-72" x="934.041016"/>
      <use xlink:href="#DejaVuSans-61" x="975.154297"/>
      <use xlink:href="#DejaVuSans-74" x="1036.433594"/>
      <use xlink:href="#DejaVuSans-75" x="1075.642578"/>
      <use xlink:href="#DejaVuSans-72" x="1139.021484"/>
      <use xlink:href="#DejaVuSans-65" x="1177.884766"/>
      <use xlink:href="#DejaVuSans-20" x="1239.408203"/>
      <use xlink:href="#DejaVuSans-3d" x="1271.195312"/>
      <use xlink:href="#DejaVuSans-20" x="1354.984375"/>
      <use xlink:href="#DejaVuSans-27" x="1386.771484"/>
      <use xlink:href="#DejaVuSans-37" x="1414.261719"/>
      <use xlink:href="#DejaVuSans-35" x="1477.884766"/>
      <use xlink:href="#DejaVuSans-27" x="1541.507812"/>
     </g>
    </g>
    <g id="line2d_30">
     <path d="M 214.460625 293.004312 
L 224.460625 293.004312 
L 234.460625 293.004312 
" style="fill: none; stroke: #9467bd; stroke-width: 1.5; stroke-linecap: square"/>
     <g>
      <use xlink:href="#me8c4fee867" x="224.460625" y="293.004312" style="fill: #9467bd; stroke: #9467bd; stroke-linejoin: bevel"/>
     </g>
    </g>
    <g id="text_17">
     <!-- corner = tt, temperature = '100' -->
     <g transform="translate(242.460625 296.504312) scale(0.1 -0.1)">
      <use xlink:href="#DejaVuSans-63"/>
      <use xlink:href="#DejaVuSans-6f" x="54.980469"/>
      <use xlink:href="#DejaVuSans-72" x="116.162109"/>
      <use xlink:href="#DejaVuSans-6e" x="155.525391"/>
      <use xlink:href="#DejaVuSans-65" x="218.904297"/>
      <use xlink:href="#DejaVuSans-72" x="280.427734"/>
      <use xlink:href="#DejaVuSans-20" x="321.541016"/>
      <use xlink:href="#DejaVuSans-3d" x="353.328125"/>
      <use xlink:href="#DejaVuSans-20" x="437.117188"/>
      <use xlink:href="#DejaVuSans-74" x="468.904297"/>
      <use xlink:href="#DejaVuSans-74" x="508.113281"/>
      <use xlink:href="#DejaVuSans-2c" x="547.322266"/>
      <use xlink:href="#DejaVuSans-20" x="579.109375"/>
      <use xlink:href="#DejaVuSans-74" x="610.896484"/>
      <use xlink:href="#DejaVuSans-65" x="650.105469"/>
      <use xlink:href="#DejaVuSans-6d" x="711.628906"/>
      <use xlink:href="#DejaVuSans-70" x="809.041016"/>
      <use xlink:href="#DejaVuSans-65" x="872.517578"/>
      <use xlink:href="#DejaVuSans-72" x="934.041016"/>
      <use xlink:href="#DejaVuSans-61" x="975.154297"/>
      <use xlink:href="#DejaVuSans-74" x="1036.433594"/>
      <use xlink:href="#DejaVuSans-75" x="1075.642578"/>
      <use xlink:href="#DejaVuSans-72" x="1139.021484"/>
      <use xlink:href="#DejaVuSans-65" x="1177.884766"/>
      <use xlink:href="#DejaVuSans-20" x="1239.408203"/>
      <use xlink:href="#DejaVuSans-3d" x="1271.195312"/>
      <use xlink:href="#DejaVuSans-20" x="1354.984375"/>
      <use xlink:href="#DejaVuSans-27" x="1386.771484"/>
      <use xlink:href="#DejaVuSans-31" x="1414.261719"/>
      <use xlink:href="#DejaVuSans-30" x="1477.884766"/>
      <use xlink:href="#DejaVuSans-30" x="1541.507812"/>
      <use xlink:href="#DejaVuSans-27" x="1605.130859"/>
     </g>
    </g>
   </g>
  </g>
 </g>
 <defs>
  <clipPath id="pd387320144">
   <rect x="57.6" y="41.472" width="357.12" height="266.112"/>
  </clipPath>
 </defs>
</svg>
